<?xml version="1.0" encoding="utf-8"?>
<!DOCTYPE svg PUBLIC "-//W3C//DTD SVG 1.1//EN" "http://www.w3.org/Graphics/SVG/1.1/DTD/svg11.dtd">
<svg version="1.1" id="Layer_1" xmlns="http://www.w3.org/2000/svg" xmlns:xlink="http://www.w3.org/1999/xlink" x="0px" y="0px"
	 width="260px" height="260px" viewBox="0 0 260 260" enable-background="new 0 0 260 260" xml:space="preserve">
<path class="path" d="M130.928,248.918c-65.367,0-118.547-53.181-118.547-118.546c0-65.368,53.18-118.549,118.547-118.549
	c65.363,0,118.547,53.181,118.547,118.549C249.475,195.737,196.291,248.918,130.928,248.918 M130.928,24.796
	c-58.215,0-105.577,47.362-105.577,105.576c0,58.215,47.362,105.578,105.577,105.578c58.214,0,105.574-47.363,105.574-105.578
	C236.502,72.158,189.142,24.796,130.928,24.796"/>
<path class="path" d="M118.058,151.393c0,11.443,5.009,14.59,12.87,14.59c7.865,0,12.873-3.147,12.873-14.59v-6.866h19.736v4.293
	c0,25.456-13.445,34.61-32.609,34.61c-19.163,0-32.61-9.154-32.61-34.61v-36.896c0-25.461,13.447-34.614,32.61-34.614
	c19.164,0,32.609,9.153,32.609,34.614v0.282h-19.736v-2.857c0-11.444-5.008-14.589-12.873-14.589c-7.861,0-12.87,3.145-12.87,14.589
	V151.393z"/>
</svg>
