<?xml version="1.0" encoding="utf-8"?>
<!DOCTYPE svg PUBLIC "-//W3C//DTD SVG 1.1//EN" "http://www.w3.org/Graphics/SVG/1.1/DTD/svg11.dtd">
<svg version="1.1" id="Layer_1" xmlns="http://www.w3.org/2000/svg" xmlns:xlink="http://www.w3.org/1999/xlink" x="0px" y="0px"
	 width="260px" height="260px" viewBox="0 0 260 260" enable-background="new 0 0 260 260" xml:space="preserve">
<path class="path" d="M129.14,249.458c-65.665,0-119.087-53.423-119.087-119.087c0-65.666,53.422-119.088,119.087-119.088
	c65.662,0,119.084,53.422,119.084,119.088C248.224,196.036,194.802,249.458,129.14,249.458 M129.14,24.315
	c-58.479,0-106.058,47.577-106.058,106.056c0,58.479,47.579,106.054,106.058,106.054s106.055-47.576,106.055-106.054
	C235.195,71.893,187.619,24.315,129.14,24.315"/>
<polygon class="path" points="83.307,182.236 83.307,78.505 111.04,78.505 128.999,146.6 129.284,146.6 147.247,78.505
	174.976,78.505 174.976,182.236 158.018,182.236 158.018,100.625 157.735,100.625 136.611,182.236 121.669,182.236 100.548,100.625
	100.263,100.625 100.263,182.236 "/>
</svg>
