<?xml version="1.0" encoding="utf-8"?>
<!-- Generator: Adobe Illustrator 16.0.0, SVG Export Plug-In . SVG Version: 6.00 Build 0)  -->
<!DOCTYPE svg PUBLIC "-//W3C//DTD SVG 1.1//EN" "http://www.w3.org/Graphics/SVG/1.1/DTD/svg11.dtd">
<svg version="1.1" id="Layer_1" xmlns="http://www.w3.org/2000/svg" xmlns:xlink="http://www.w3.org/1999/xlink" x="0px" y="0px"
	 width="260px" height="260px" viewBox="0 0 260 260" enable-background="new 0 0 260 260" xml:space="preserve">
<path d="M129.691,257.216c-70.058,0-127.056-56.998-127.056-127.056c0-70.061,56.999-127.059,127.056-127.059
	c70.057,0,127.059,56.999,127.059,127.059C256.75,200.218,199.748,257.216,129.691,257.216 M129.691,17.005
	c-62.393,0-113.154,50.762-113.154,113.154c0,62.395,50.761,113.159,113.154,113.159c62.394,0,113.154-50.764,113.154-113.159
	C242.845,67.767,192.085,17.005,129.691,17.005 M115.898,107.626c0-12.266,5.366-15.636,13.794-15.636
	c8.43,0,13.797,3.37,13.797,15.636v3.063h21.152v-0.302c0-27.289-14.408-37.099-34.949-37.099c-20.539,0-34.952,9.81-34.952,37.099
	v39.544c0,27.283,14.413,37.097,34.952,37.097c20.541,0,34.949-9.813,34.949-37.097v-4.602h-21.152v7.359
	c0,12.265-5.367,15.637-13.797,15.637c-8.428,0-13.794-3.372-13.794-15.637V107.626z"/>
</svg>
