<?xml version="1.0" encoding="utf-8"?>
<!-- Generator: Adobe Illustrator 16.0.0, SVG Export Plug-In . SVG Version: 6.00 Build 0)  -->
<!DOCTYPE svg PUBLIC "-//W3C//DTD SVG 1.1//EN" "http://www.w3.org/Graphics/SVG/1.1/DTD/svg11.dtd">
<svg version="1.1" id="Layer_1" xmlns="http://www.w3.org/2000/svg" xmlns:xlink="http://www.w3.org/1999/xlink" x="0px" y="0px"
	 width="260px" height="260px" viewBox="0 0 260 260" enable-background="new 0 0 260 260" xml:space="preserve">
<path d="M129.958,258.728c-71.068,0-128.887-57.818-128.887-128.887c0-71.07,57.819-128.889,128.887-128.889
	c71.065,0,128.884,57.819,128.884,128.889C258.842,200.909,201.023,258.728,129.958,258.728 M129.958,15.057
	c-63.292,0-114.785,51.492-114.785,114.784s51.494,114.782,114.785,114.782c63.292,0,114.782-51.49,114.782-114.782
	S193.25,15.057,129.958,15.057 M98.704,185.974V97.646h0.309l22.859,88.327h16.172l22.862-88.327h0.306v88.327h18.354V73.706
	h-30.012l-19.44,73.698h-0.309l-19.438-73.698H80.353v112.268H98.704z"/>
</svg>
